<!-- <svg xmlns:dc="http://purl.org/dc/elements/1.1/" xmlns:cc="http://creativecommons.org/ns#" xmlns:rdf="http://www.w3.org/1999/02/22-rdf-syntax-ns#" xmlns:svg="http://www.w3.org/2000/svg" xmlns="http://www.w3.org/2000/svg" xmlns:xlink="http://www.w3.org/1999/xlink" id="svg62323" viewBox="900 350 20 60" height="100px" width="100px" version="1.1"> -->
<svg xmlns:dc="http://purl.org/dc/elements/1.1/" xmlns:cc="http://creativecommons.org/ns#" xmlns:rdf="http://www.w3.org/1999/02/22-rdf-syntax-ns#" xmlns:svg="http://www.w3.org/2000/svg" xmlns="http://www.w3.org/2000/svg" xmlns:xlink="http://www.w3.org/1999/xlink" id="svg132223" viewBox="650 350 70 75"  version="1.1">
  <metadata id="metadata132229">
    <rdf:rdf>
      <cc:work rdf:about="">
        <dc:format>image/svg+xml</dc:format>
        <dc:type rdf:resource="http://purl.org/dc/dcmitype/StillImage"></dc:type>
      </cc:work>
    </rdf:rdf>
  </metadata>
  <defs id="defs132227"></defs>
  <linearGradient spreadMethod="pad" y2="30%" x2="-10%" y1="120%" x1="30%" id="3d_gradient2-logo-c401a30e-f4b1-487d-b462-4472e255d1ab">
    <stop id="stop132204" stop-opacity="1" stop-color="#ffffff" offset="0%"></stop>
    <stop id="stop132206" stop-opacity="1" stop-color="#000000" offset="100%"></stop>
  </linearGradient>
  <linearGradient gradientTransform="rotate(-30)" spreadMethod="pad" y2="30%" x2="-10%" y1="120%" x1="30%" id="3d_gradient3-logo-c401a30e-f4b1-487d-b462-4472e255d1ab">
    <stop id="stop132209" stop-opacity="1" stop-color="#ffffff" offset="0%"></stop>
    <stop id="stop132211" stop-opacity="1" stop-color="#cccccc" offset="50%"></stop>
    <stop id="stop132213" stop-opacity="1" stop-color="#000000" offset="100%"></stop>
  </linearGradient>
  <g id="logo-group">
    <image xlink:href="https://app.brandmark.io/v2/icon_large/?id=95196" id="container" x="272" y="144" width="480" height="480" style="display: none;" transform="translate(0 0)"></image>
    <g id="logo-center" transform="translate(-1.1368683772161603e-13 0)">
      <image xlink:href="" id="icon_container" x="0" y="0" style="display: none;"></image>
      <g id="slogan" style="font-style:oblique;font-weight:300;font-size:32px;line-height:1;font-family:Lato;font-variant-ligatures:none;text-align:center;text-anchor:middle" transform="translate(0 0)"></g>
      <g id="title" style="font-style:normal;font-weight:700;font-size:72px;line-height:1;font-family:'Brandmark1 Bold';font-variant-ligatures:normal;text-align:center;text-anchor:middle" transform="translate(0 0)">
        <path id="path132232" style="font-style:normal;font-weight:700;font-size:72px;line-height:1;font-family:'Brandmark1 Bold';font-variant-ligatures:normal;text-align:center;text-anchor:middle" d="m 358.92744,2.52 h 11.304 v -45.432 h 15.48 V -53.64 h -42.048 v 10.728 h 15.264 z" stroke-width="0" stroke-linejoin="miter" stroke-miterlimit="2" fill="#282323" stroke="#282323" transform="translate(0 297.856) translate(262.965375 51.872) scale(1) translate(-343.66344 53.64)"></path>
        <path id="path132234" style="font-style:normal;font-weight:700;font-size:72px;line-height:1;font-family:'Brandmark1 Bold';font-variant-ligatures:normal;text-align:center;text-anchor:middle" d="m 394.61919,2.52 v 0 -17.712 c 0,-6.912 5.616,-12.6 12.6,-12.6 v -10.8 c -3.168,0 -6.264,0.648 -9.144,1.872 -2.736,1.152 -5.256,2.88 -7.416,5.04 -2.16,2.088 -3.816,4.608 -5.04,7.416 -1.224,2.88 -1.8,5.904 -1.8,9.072 V 2.52 Z" stroke-width="0" stroke-linejoin="miter" stroke-miterlimit="2" fill="#282323" stroke="#282323" transform="translate(0 297.856) translate(323.121125 66.92) scale(1) translate(-383.81919 38.592)"></path>
        <path id="path132236" style="font-style:normal;font-weight:700;font-size:72px;line-height:1;font-family:'Brandmark1 Bold';font-variant-ligatures:normal;text-align:center;text-anchor:middle" d="m 426.50731,3.024 c 2.736,0 5.472,-0.576 7.992,-1.584 2.448,-1.08 4.68,-2.52 6.552,-4.392 1.872,-1.944 3.312,-4.104 4.392,-6.552 1.08,-2.52 1.584,-5.256 1.584,-7.992 0,-2.808 -0.504,-5.472 -1.584,-7.992 -1.08,-2.448 -2.52,-4.68 -4.392,-6.552 -1.944,-1.872 -4.104,-3.312 -6.552,-4.392 -2.52,-1.08 -5.256,-1.584 -7.992,-1.584 -2.736,0 -5.472,0.504 -7.992,1.584 -2.448,1.08 -4.608,2.52 -6.552,4.392 -1.872,1.944 -3.312,4.104 -4.392,6.552 -1.008,2.52 -1.584,5.184 -1.584,7.992 0,2.736 0.576,5.472 1.584,7.992 1.08,2.448 2.52,4.608 4.392,6.552 1.944,1.872 4.104,3.312 6.552,4.392 2.52,1.008 5.256,1.584 7.992,1.584 z m 0,-30.24 c 5.328,0 9.72,4.392 9.72,9.72 0,5.328 -4.392,9.72 -9.72,9.72 -5.328,0 -9.72,-4.392 -9.72,-9.72 0,-5.328 4.392,-9.72 9.72,-9.72 z" stroke-width="0" stroke-linejoin="miter" stroke-miterlimit="2" fill="#282323" stroke="#282323" transform="translate(0 297.856) translate(365.289245 67.49600000000001) scale(1) translate(-405.98731 38.016)"></path>
        <path id="path132238" style="font-style:normal;font-weight:700;font-size:72px;line-height:1;font-family:'Brandmark1 Bold';font-variant-ligatures:normal;text-align:center;text-anchor:middle" d="m 490.06531,-25.416 c -1.08,-2.448 -2.52,-4.608 -4.392,-6.552 -1.944,-1.872 -4.104,-3.312 -6.552,-4.392 -2.52,-1.08 -5.184,-1.584 -7.992,-1.584 -2.736,0 -5.472,0.504 -7.992,1.584 -2.448,1.08 -4.608,2.52 -6.552,4.392 -1.872,1.872 -3.312,4.104 -4.392,6.552 -1.008,2.52 -1.584,5.184 -1.584,7.992 v 30.6 l 10.8,3.6 V 0.648 c 0.576,0.288 1.152,0.576 1.728,0.792 2.52,1.08 5.256,1.656 7.992,1.656 2.736,0 5.472,-0.576 7.992,-1.656 2.448,-1.008 4.608,-2.448 6.552,-4.392 1.872,-1.872 3.312,-4.032 4.392,-6.48 1.08,-2.52 1.584,-5.256 1.584,-7.992 0,-2.808 -0.504,-5.472 -1.584,-7.992 z m -18.936,17.712 c -5.328,0 -9.72,-4.392 -9.72,-9.72 0,-5.328 4.392,-9.72 9.72,-9.72 5.328,0 9.72,4.392 9.72,9.72 0,5.328 -4.392,9.72 -9.72,9.72 z" stroke-width="0" stroke-linejoin="miter" stroke-miterlimit="2" fill="#282323" stroke="#282323" transform="translate(0 297.856) translate(429.911245 67.568) scale(1) translate(-450.60931 37.944)"></path>
        <path id="path132240" style="font-style:normal;font-weight:700;font-size:72px;line-height:1;font-family:'Brandmark1 Bold';font-variant-ligatures:normal;text-align:center;text-anchor:middle" d="m 495.48556,2.52 h 10.872 v -41.544 l -10.872,3.6 z" stroke-width="0" stroke-linejoin="miter" stroke-miterlimit="2" fill="#282323" stroke="#282323" transform="translate(0 297.856) translate(494.78749500000004 66.488) scale(1) translate(-495.48556 39.024)"></path>
        <path id="path132242" style="font-style:normal;font-weight:700;font-size:72px;line-height:1;font-family:'Brandmark1 Bold';font-variant-ligatures:normal;text-align:center;text-anchor:middle" d="m 530.99169,3.096 c 6.696,0 13.032,-3.312 16.92,-8.928 l -8.928,-6.12 c -1.8,2.664 -4.824,4.248 -7.992,4.248 -5.4,0 -9.72,-4.392 -9.72,-9.72 0,-5.4 4.32,-9.72 9.72,-9.72 3.096,0 6.12,1.512 7.92,4.104 l 8.856,-6.192 c -1.872,-2.664 -4.392,-4.824 -7.2,-6.336 -2.952,-1.584 -6.264,-2.376 -9.576,-2.376 -2.808,0 -5.472,0.504 -7.992,1.584 -2.448,1.08 -4.68,2.52 -6.552,4.392 -1.872,1.944 -3.384,4.104 -4.392,6.552 -1.08,2.52 -1.584,5.256 -1.584,7.992 0,2.736 0.504,5.472 1.584,7.992 1.008,2.448 2.52,4.608 4.392,6.552 1.872,1.872 4.104,3.312 6.552,4.392 2.52,1.008 5.184,1.584 7.992,1.584 z" stroke-width="0" stroke-linejoin="miter" stroke-miterlimit="2" fill="#282323" stroke="#282323" transform="translate(0 297.856) translate(529.773625 67.568) scale(1) translate(-510.47169 37.944)"></path>
        <path id="path132244" style="font-style:normal;font-weight:700;font-size:72px;line-height:1;font-family:'Brandmark1 Bold';font-variant-ligatures:normal;text-align:center;text-anchor:middle" d="m 577.53856,-38.016 0.072,2.304 c -2.88,-1.44 -6.048,-2.232 -9.288,-2.232 -2.736,0 -5.472,0.504 -7.992,1.584 -2.448,1.08 -4.608,2.52 -6.552,4.392 -1.872,1.872 -3.312,4.104 -4.392,6.552 -1.008,2.52 -1.584,5.256 -1.584,7.992 0,2.736 0.576,5.472 1.584,7.992 1.08,2.448 2.52,4.608 4.392,6.552 1.944,1.872 4.104,3.312 6.552,4.392 2.52,1.008 5.256,1.584 7.992,1.584 3.24,0 6.408,-0.792 9.288,-2.232 l -0.072,1.656 h 10.8 v -40.536 z m -4.32,28.944 c -1.44,0.864 -3.168,1.368 -4.896,1.368 -5.328,0 -9.72,-4.392 -9.72,-9.72 0,-5.328 4.392,-9.72 9.72,-9.72 1.872,0 3.744,0.504 5.256,1.584 1.584,0.936 2.808,2.376 3.528,4.032 0.648,1.296 0.936,2.664 0.936,4.104 0,1.728 -0.432,3.384 -1.296,4.896 -0.864,1.44 -2.016,2.664 -3.528,3.456 z" stroke-width="0" stroke-linejoin="miter" stroke-miterlimit="2" fill="#282323" stroke="#282323" transform="translate(0 297.856) translate(587.104495 67.49600000000001) scale(1) translate(-547.80256 38.016)"></path>
        <path id="path132246" style="font-style:normal;font-weight:700;font-size:72px;line-height:1;font-family:'Brandmark1 Bold';font-variant-ligatures:normal;text-align:center;text-anchor:middle" d="m 594.06369,2.52 h 10.872 v -58.032 l -10.872,3.6 z" stroke-width="0" stroke-linejoin="miter" stroke-miterlimit="2" fill="#282323" stroke="#282323" transform="translate(0 297.856) translate(653.3656250000001 50) scale(1) translate(-594.06369 55.512)"></path>
        <path id="path132248" style="font-style:normal;font-weight:700;font-size:72px;line-height:1;font-family:'Brandmark1 Bold';font-variant-ligatures:normal;text-align:center;text-anchor:middle" d="m 657.97269,3.024 c 9.504,0 18.36,-4.752 23.688,-12.6 l -9.36,-6.336 c -3.24,4.752 -8.568,7.632 -14.328,7.632 -4.608,0 -9,-1.8 -12.24,-5.04 -3.312,-3.312 -5.112,-7.632 -5.112,-12.312 0,-4.608 1.8,-8.928 5.112,-12.24 3.24,-3.24 7.632,-5.04 12.24,-5.04 5.76,0 11.16,2.88 14.4,7.704 l 9.36,-6.336 c -5.328,-7.92 -14.184,-12.672 -23.76,-12.672 -3.888,0 -7.632,0.72 -11.16,2.232 -3.384,1.44 -6.48,3.528 -9.072,6.12 -2.664,2.664 -4.68,5.688 -6.12,9.144 -1.512,3.528 -2.304,7.272 -2.304,11.088 0,3.888 0.792,7.632 2.304,11.16 1.44,3.384 3.456,6.48 6.12,9.072 2.592,2.664 5.688,4.752 9.072,6.192 3.528,1.44 7.272,2.232 11.16,2.232 z" stroke-width="0" stroke-linejoin="miter" stroke-miterlimit="2" fill="#282323" stroke="#282323" transform="translate(0 297.856) translate(708.6186250000002 51.296) scale(1) translate(-629.31669 54.216)"></path>
      </g>
      <image xlink:href="" id="icon" x="0" y="0" style="display: none;"></image>
    </g>
  </g>
</svg>